<?xml version="1.0" standalone="no"?>
<!DOCTYPE svg PUBLIC "-//W3C//DTD SVG 20010904//EN"
 "http://www.w3.org/TR/2001/REC-SVG-20010904/DTD/svg10.dtd">
<svg version="1.0" xmlns="http://www.w3.org/2000/svg"
 width="700.000000pt" height="700.000000pt" viewBox="0 0 700.000000 700.000000"
 preserveAspectRatio="xMidYMid meet">
<metadata>
Created by potrace 1.14, written by Peter Selinger 2001-2017
</metadata>
<g transform="translate(0.000000,700.000000) scale(0.100000,-0.100000)"
fill="#000000" stroke="none">
<path d="M838 6028 c-273 -27 -494 -243 -525 -514 -5 -38 -8 -847 -8 -1799 1
-1848 0 -1787 51 -1902 79 -179 252 -315 444 -348 25 -5 473 -9 995 -9 l950
-1 1 -190 c0 -204 -7 -279 -33 -329 -85 -164 -315 -313 -651 -422 -73 -23
-138 -49 -145 -56 -42 -44 -36 -113 11 -147 28 -20 43 -20 1580 -20 853 0
1564 4 1579 8 35 9 66 52 65 91 -2 60 -22 76 -149 116 -335 105 -561 245 -657
404 -19 30 -36 71 -40 90 -7 43 -15 187 -18 340 l-3 115 960 1 c726 1 975 4
1020 13 225 47 416 241 459 467 10 55 12 414 12 1834 -2 1686 -2 1768 -20
1825 -68 219 -229 373 -446 425 -45 11 -552 14 -2710 14 -1460 1 -2685 -2
-2722 -6z"/>
</g>
</svg>
